<svg width="36" height="34" viewBox="0 0 36 34" fill="none" xmlns="http://www.w3.org/2000/svg">
<path d="M3.07492 17.7721C3.67594 18.0194 4.31747 18.1372 4.962 18.1189C6.7483 18.1566 8.49798 18.6622 10.0548 19.5905C11.609 20.5166 12.9215 21.8372 13.8744 23.4336C14.1738 24.0247 14.5833 24.5453 15.0781 24.964C15.573 25.3826 16.1429 25.6906 16.7534 25.8693C17.3638 26.048 18.0022 26.0936 18.6298 26.0035C19.2575 25.9134 19.8613 25.6893 20.4048 25.3449C21.1308 24.8849 21.726 24.2228 22.122 23.4336C22.4184 22.9811 22.7376 22.5465 23.0796 22.1322L24.0396 21.0939C25.9282 19.1914 28.4315 18.1245 31.038 18.1112C31.6827 18.1309 32.3245 18.0136 32.9257 17.7663C33.5269 17.519 34.0753 17.1467 34.5384 16.6714C35.001 16.1981 35.3689 15.6311 35.62 15.004C35.8711 14.3769 36.0003 13.7026 36 13.0215C35.9991 12.3407 35.8693 11.6671 35.6182 11.0404C35.3672 10.4137 35 9.84665 34.5384 9.37287C34.0745 8.89836 33.5258 8.52662 32.9246 8.27938C32.3233 8.03214 31.6815 7.91439 31.0368 7.93299C30.1999 7.9441 29.3804 8.18822 28.6608 8.64086C27.9424 9.09193 27.3492 9.73594 26.9412 10.5077C25.074 13.6328 21.504 15.8072 17.9928 15.8072C15.4089 15.7995 12.9243 14.7529 11.0412 12.8791L9.0588 10.5154C8.652 9.74396 8.0592 9.09963 7.3392 8.64721C6.6204 8.19352 5.7996 7.95079 4.962 7.93935C4.31734 7.91991 3.67553 8.03729 3.07437 8.28457C2.47321 8.53186 1.92485 8.90405 1.4616 9.37922C0.999092 9.85253 0.631321 10.4196 0.38021 11.0467C0.1291 11.6738 -0.000210318 12.348 -5.37769e-07 13.0291C0.0007433 13.7101 0.130485 14.384 0.381538 15.0109C0.632594 15.6378 0.999862 16.2051 1.4616 16.679C1.92544 17.1533 2.4739 17.5249 3.07492 17.7721Z" fill="#0092FF"/>
<path d="M28.368 24.6752C29.1624 24.1147 30.0972 23.8161 31.0524 23.8161C32.3319 23.817 33.5592 24.3538 34.4664 25.3093C35.2557 26.1402 35.7474 27.2361 35.8571 28.409C35.9668 29.5818 35.6877 30.7586 35.0676 31.7373C34.5361 32.5756 33.782 33.2284 32.9004 33.6131C32.0178 33.9978 31.0477 34.0983 30.1115 33.9018C29.1753 33.7054 28.3146 33.2208 27.6372 32.5087C26.9617 31.7988 26.5012 30.8919 26.3147 29.9036C26.1281 28.9153 26.2238 27.8906 26.5896 26.9602C26.9558 26.0289 27.5747 25.2336 28.368 24.6752Z" fill="#0092FF"/>
<path d="M8.9784 26.0795C9.5088 26.917 9.792 27.9019 9.792 28.9084L9.7944 28.9084C9.79364 29.5775 9.66816 30.2398 9.42517 30.8574C9.18218 31.475 8.82646 32.0357 8.3784 32.5074C7.58654 33.341 6.5472 33.8595 5.43605 33.9753C4.3249 34.0911 3.21007 33.797 2.28 33.1429C1.48564 32.5844 0.865821 31.7887 0.499198 30.8566C0.133383 29.9262 0.0376613 28.9015 0.224253 27.9132C0.410846 26.9249 0.871287 26.018 1.5468 25.3081C2.22428 24.5958 3.08518 24.111 4.02164 23.9146C4.9581 23.7181 5.92848 23.8187 6.8112 24.2037C7.69273 24.5885 8.44686 25.2412 8.9784 26.0795Z" fill="#0092FF"/>
<path d="M22.0236 2.26245C22.554 3.09994 22.8372 4.08358 22.8372 5.09136C22.8359 5.76027 22.71 6.42233 22.4668 7.03968C22.2236 7.65702 21.8679 8.21753 21.42 8.68914C20.6284 9.52233 19.5895 10.0406 18.4788 10.1564C17.3681 10.2721 16.2538 9.97832 15.324 9.32457C14.5303 8.76624 13.911 7.971 13.5444 7.03958C13.1804 6.10885 13.0856 5.08458 13.2721 4.09673C13.4586 3.10887 13.918 2.20195 14.592 1.49104C15.2694 0.778986 16.1301 0.294395 17.0663 0.0979507C18.0025 -0.098494 18.9726 0.00193819 19.8552 0.386671C20.7372 0.771222 21.4917 1.42396 22.0236 2.26245Z" fill="#0092FF"/>
</svg>
